<svg width="514" height="51" viewBox="0 0 514 51" fill="none" xmlns="http://www.w3.org/2000/svg">
<path d="M68.7998 43V14.4H75.1998V37.8H96.1198V43H68.7998ZM100.128 43V14.4H106.528V43H100.128ZM112.12 43V14.4H142.68V19.6H118.52V27.52H139.56V32.72H118.52V43H112.12ZM147.081 43V14.4H178.441V19.6H153.481V25.92H176.121V31.12H153.481V37.8H178.441V43H147.081Z" fill="white"/>
<path d="M182.8 43V14.4H189.2V37.8H210.12V43H182.8ZM214.128 43V14.4H220.528V43H214.128ZM226.12 43V14.4H232.6L252.84 34.96V14.4H259.24V43H252.76L232.52 22.4V43H226.12ZM264.831 43V14.4H296.191V19.6H271.231V25.92H293.871V31.12H271.231V37.8H296.191V43H264.831Z" fill="white"/>
<path d="M316.133 35.1904C316.133 34.4606 316.349 33.9411 316.782 33.6318C317.215 33.3102 317.636 33.1494 318.044 33.1494H320.252C321.365 33.1494 322.213 33.7555 322.794 34.9678C323.375 36.18 324.68 36.7861 326.709 36.7861L333.203 36.916C335.38 36.916 336.469 36.2048 336.469 34.7822C336.469 33.7061 335.139 32.8587 332.48 32.2402C331.292 31.9557 329.981 31.6774 328.546 31.4053C327.111 31.1208 325.682 30.7682 324.26 30.3477C322.85 29.9271 321.551 29.4323 320.363 28.8633C319.176 28.2943 318.211 27.515 317.469 26.5254C316.739 25.5234 316.374 24.3483 316.374 23C316.374 20.5137 317.258 18.6025 319.027 17.2666C320.796 15.9183 323.839 15.2441 328.156 15.2441L332.869 15.3555C335.405 15.3555 337.687 16.0111 339.716 17.3223C341.757 18.6211 342.777 20.2477 342.777 22.2021C342.777 22.932 342.561 23.4577 342.128 23.7793C341.695 24.1009 341.281 24.2617 340.885 24.2617H338.677C337.563 24.2617 336.716 23.6556 336.135 22.4434C335.553 21.2188 334.248 20.6064 332.22 20.6064L326.635 20.4951C324.458 20.4951 323.369 21.2064 323.369 22.6289C323.369 23.4082 324.056 24.0452 325.429 24.54C326.814 25.0348 328.484 25.474 330.439 25.8574C332.405 26.2285 334.378 26.68 336.357 27.2119C338.337 27.7438 340.013 28.6221 341.386 29.8467C342.771 31.0589 343.464 32.5742 343.464 34.3926C343.464 36.8789 342.573 38.7962 340.792 40.1445C339.023 41.4805 335.986 42.1484 331.682 42.1484L326.06 42.0371C323.524 42.0371 321.235 41.3877 319.194 40.0889C317.153 38.7777 316.133 37.1449 316.133 35.1904ZM344.429 16.2832C344.429 15.6895 344.75 15.3926 345.394 15.3926H348.919C350.317 15.3926 351.393 15.9801 352.147 17.1553L358.159 26.4141L364.152 17.1553C364.919 15.9801 365.995 15.3926 367.381 15.3926H370.925C371.556 15.3926 371.871 15.6895 371.871 16.2832C371.871 16.5553 371.772 16.846 371.574 17.1553L361.647 32.5V40.293C361.647 40.7754 361.474 41.1836 361.128 41.5176C360.794 41.8392 360.386 42 359.903 42H356.415C355.933 42 355.518 41.8392 355.172 41.5176C354.826 41.1836 354.652 40.7754 354.652 40.293V32.5L344.744 17.1553C344.534 16.846 344.429 16.5553 344.429 16.2832ZM373.022 35.1904C373.022 34.4606 373.238 33.9411 373.671 33.6318C374.104 33.3102 374.524 33.1494 374.933 33.1494H377.141C378.254 33.1494 379.101 33.7555 379.683 34.9678C380.264 36.18 381.569 36.7861 383.598 36.7861L390.092 36.916C392.269 36.916 393.357 36.2048 393.357 34.7822C393.357 33.7061 392.028 32.8587 389.368 32.2402C388.181 31.9557 386.869 31.6774 385.435 31.4053C384 31.1208 382.571 30.7682 381.148 30.3477C379.738 29.9271 378.439 29.4323 377.252 28.8633C376.064 28.2943 375.1 27.515 374.357 26.5254C373.628 25.5234 373.263 24.3483 373.263 23C373.263 20.5137 374.147 18.6025 375.916 17.2666C377.685 15.9183 380.728 15.2441 385.045 15.2441L389.758 15.3555C392.294 15.3555 394.576 16.0111 396.605 17.3223C398.646 18.6211 399.666 20.2477 399.666 22.2021C399.666 22.932 399.45 23.4577 399.017 23.7793C398.584 24.1009 398.169 24.2617 397.773 24.2617H395.565C394.452 24.2617 393.605 23.6556 393.023 22.4434C392.442 21.2188 391.137 20.6064 389.108 20.6064L383.523 20.4951C381.346 20.4951 380.258 21.2064 380.258 22.6289C380.258 23.4082 380.944 24.0452 382.317 24.54C383.703 25.0348 385.373 25.474 387.327 25.8574C389.294 26.2285 391.267 26.68 393.246 27.2119C395.225 27.7438 396.901 28.6221 398.274 29.8467C399.66 31.0589 400.353 32.5742 400.353 34.3926C400.353 36.8789 399.462 38.7962 397.681 40.1445C395.912 41.4805 392.875 42.1484 388.57 42.1484L382.948 42.0371C380.412 42.0371 378.124 41.3877 376.083 40.0889C374.042 38.7777 373.022 37.1449 373.022 35.1904ZM401.317 18.8994V17.1553C401.317 16.6481 401.484 16.2275 401.818 15.8936C402.152 15.5596 402.573 15.3926 403.08 15.3926H426.626C427.133 15.3926 427.554 15.5596 427.888 15.8936C428.222 16.2275 428.389 16.6481 428.389 17.1553V18.8994C428.389 19.4066 428.222 19.8271 427.888 20.1611C427.554 20.4827 427.133 20.6436 426.626 20.6436H418.351V40.293C418.351 40.7754 418.177 41.1836 417.831 41.5176C417.497 41.8392 417.089 42 416.606 42H413.1C412.617 42 412.203 41.8392 411.856 41.5176C411.522 41.1836 411.355 40.7754 411.355 40.293V20.6436H403.08C402.573 20.6436 402.152 20.4827 401.818 20.1611C401.484 19.8271 401.317 19.4066 401.317 18.8994ZM431.432 40.2188V17.1182C431.432 16.6357 431.605 16.2275 431.951 15.8936C432.298 15.5596 432.712 15.3926 433.194 15.3926H454.588C455.07 15.3926 455.479 15.5658 455.813 15.9121C456.159 16.2585 456.332 16.6729 456.332 17.1553V18.8994C456.332 19.3818 456.159 19.7962 455.813 20.1426C455.479 20.4766 455.07 20.6436 454.588 20.6436H438.427V26.043H452.343C452.825 26.043 453.233 26.2161 453.567 26.5625C453.914 26.8965 454.087 27.3047 454.087 27.7871V29.5312C454.087 30.0137 453.914 30.4281 453.567 30.7744C453.233 31.1084 452.825 31.2754 452.343 31.2754H438.427V36.749H454.551C455.021 36.749 455.423 36.916 455.757 37.25C456.091 37.584 456.258 37.9922 456.258 38.4746V40.2559C456.258 40.7383 456.085 41.1527 455.738 41.499C455.392 41.833 454.978 42 454.495 42H433.194C432.712 42 432.298 41.833 431.951 41.499C431.605 41.1527 431.432 40.7259 431.432 40.2188ZM459.746 40.2188V17.1924C459.746 16.6852 459.913 16.2585 460.247 15.9121C460.581 15.5658 460.989 15.3926 461.472 15.3926H469.023C469.506 15.3926 469.964 15.5658 470.397 15.9121C470.829 16.2585 471.12 16.6729 471.269 17.1553L476.742 33.001L482.216 17.1553C482.364 16.6729 482.655 16.2585 483.088 15.9121C483.521 15.5658 483.979 15.3926 484.461 15.3926H492.013C492.495 15.3926 492.897 15.5658 493.219 15.9121C493.553 16.2585 493.72 16.6852 493.72 17.1924V40.2188C493.72 40.7259 493.547 41.1527 493.2 41.499C492.866 41.833 492.458 42 491.976 42H488.636C488.153 42 487.739 41.833 487.393 41.499C487.059 41.1527 486.892 40.7259 486.892 40.2188V22.0908L480.342 40.3301C480.169 40.7878 479.866 41.1836 479.433 41.5176C479 41.8392 478.542 42 478.06 42H475.406C474.924 42 474.466 41.8392 474.033 41.5176C473.613 41.1836 473.31 40.7878 473.124 40.3301L466.593 22.0908V40.2188C466.593 40.7259 466.42 41.1527 466.073 41.499C465.739 41.833 465.331 42 464.849 42H461.509C461.026 42 460.612 41.833 460.266 41.499C459.919 41.1527 459.746 40.7259 459.746 40.2188Z" fill="white"/>
<path d="M36.2803 28.7949C36.2803 29.5228 36.1449 30.2041 35.874 30.8389C35.6032 31.4652 35.2308 32.0153 34.7568 32.4893C34.2913 32.9548 33.7412 33.3229 33.1064 33.5938C32.4801 33.8646 31.8073 34 31.0879 34H15.2695V31.3975H31.0879C31.4518 31.3975 31.7904 31.3298 32.1035 31.1943C32.4167 31.0589 32.6875 30.8727 32.916 30.6357C33.153 30.3988 33.3392 30.1237 33.4746 29.8105C33.61 29.4889 33.6777 29.1504 33.6777 28.7949C33.6777 28.4395 33.61 28.1051 33.4746 27.792C33.3392 27.4788 33.153 27.2038 32.916 26.9668C32.6875 26.7298 32.4167 26.5436 32.1035 26.4082C31.7904 26.2728 31.4518 26.2051 31.0879 26.2051H20.4746C19.7637 26.2051 19.0908 26.0697 18.4561 25.7988C17.8213 25.528 17.2669 25.1598 16.793 24.6943C16.3275 24.2204 15.9551 23.666 15.6758 23.0312C15.4049 22.3965 15.2695 21.7194 15.2695 21C15.2695 20.2891 15.4049 19.6162 15.6758 18.9814C15.9551 18.3467 16.3275 17.7965 16.793 17.3311C17.2669 16.8571 17.8213 16.4847 18.4561 16.2139C19.0908 15.9346 19.7637 15.7949 20.4746 15.7949H34.9854V18.3975H20.4746C20.1191 18.3975 19.7806 18.4652 19.459 18.6006C19.1458 18.736 18.8708 18.9222 18.6338 19.1592C18.3968 19.3962 18.2106 19.6755 18.0752 19.9971C17.9398 20.3102 17.8721 20.6445 17.8721 21C17.8721 21.3555 17.9398 21.694 18.0752 22.0156C18.2106 22.3288 18.3968 22.6038 18.6338 22.8408C18.8708 23.0778 19.1458 23.264 19.459 23.3994C19.7806 23.5348 20.1191 23.6025 20.4746 23.6025H31.0879C31.8073 23.6025 32.4801 23.7422 33.1064 24.0215C33.7412 24.2923 34.2913 24.6647 34.7568 25.1387C35.2308 25.6042 35.6032 26.1543 35.874 26.7891C36.1449 27.4154 36.2803 28.084 36.2803 28.7949Z" fill="#E15B4E"/>
<mask id="mask0_1220_426" style="mask-type:luminance" maskUnits="userSpaceOnUse" x="14" y="14" width="24" height="21">
<path d="M38 14H14V35H38V14Z" fill="white"/>
<path d="M36.2803 28.7949C36.2803 29.5228 36.1449 30.2041 35.874 30.8389C35.6032 31.4652 35.2308 32.0153 34.7568 32.4893C34.2913 32.9548 33.7412 33.3229 33.1064 33.5938C32.4801 33.8646 31.8073 34 31.0879 34H15.2695V31.3975H31.0879C31.4518 31.3975 31.7904 31.3298 32.1035 31.1943C32.4167 31.0589 32.6875 30.8727 32.916 30.6357C33.153 30.3988 33.3392 30.1237 33.4746 29.8105C33.61 29.4889 33.6777 29.1504 33.6777 28.7949C33.6777 28.4395 33.61 28.1051 33.4746 27.792C33.3392 27.4788 33.153 27.2038 32.916 26.9668C32.6875 26.7298 32.4167 26.5436 32.1035 26.4082C31.7904 26.2728 31.4518 26.2051 31.0879 26.2051H20.4746C19.7637 26.2051 19.0908 26.0697 18.4561 25.7988C17.8213 25.528 17.2669 25.1598 16.793 24.6943C16.3275 24.2204 15.9551 23.666 15.6758 23.0312C15.4049 22.3965 15.2695 21.7194 15.2695 21C15.2695 20.2891 15.4049 19.6162 15.6758 18.9814C15.9551 18.3467 16.3275 17.7965 16.793 17.3311C17.2669 16.8571 17.8213 16.4847 18.4561 16.2139C19.0908 15.9346 19.7637 15.7949 20.4746 15.7949H34.9854V18.3975H20.4746C20.1191 18.3975 19.7806 18.4652 19.459 18.6006C19.1458 18.736 18.8708 18.9222 18.6338 19.1592C18.3968 19.3962 18.2106 19.6755 18.0752 19.9971C17.9398 20.3102 17.8721 20.6445 17.8721 21C17.8721 21.3555 17.9398 21.694 18.0752 22.0156C18.2106 22.3288 18.3968 22.6038 18.6338 22.8408C18.8708 23.0778 19.1458 23.264 19.459 23.3994C19.7806 23.5348 20.1191 23.6025 20.4746 23.6025H31.0879C31.8073 23.6025 32.4801 23.7422 33.1064 24.0215C33.7412 24.2923 34.2913 24.6647 34.7568 25.1387C35.2308 25.6042 35.6032 26.1543 35.874 26.7891C36.1449 27.4154 36.2803 28.084 36.2803 28.7949Z" fill="black"/>
</mask>
<g mask="url(#mask0_1220_426)">
<path d="M35.874 30.8389L36.7919 31.2358L36.7938 31.2313L35.874 30.8389ZM33.1064 33.5938L32.714 32.674L32.7095 32.6759L33.1064 33.5938ZM15.2695 34H14.2695V35H15.2695V34ZM15.2695 31.3975V30.3975H14.2695V31.3975H15.2695ZM32.916 30.6357L32.2089 29.9286L32.2025 29.9351L32.1962 29.9416L32.916 30.6357ZM33.4746 29.8105L34.3925 30.2075L34.3962 30.1986L33.4746 29.8105ZM32.916 26.9668L32.1962 27.6609L32.2025 27.6675L32.2089 27.6739L32.916 26.9668ZM16.793 24.6943L16.0795 25.395L16.0858 25.4015L16.0923 25.4078L16.793 24.6943ZM15.6758 23.0312L14.7559 23.4237L14.7605 23.434L15.6758 23.0312ZM15.6758 18.9814L14.7604 18.5787L14.756 18.589L15.6758 18.9814ZM18.4561 16.2139L18.8485 17.1337L18.8588 17.1292L18.4561 16.2139ZM34.9854 15.7949H35.9854V14.7949H34.9854V15.7949ZM34.9854 18.3975V19.3975H35.9854V18.3975H34.9854ZM19.459 18.6006L19.0709 17.6789L19.0621 17.6827L19.459 18.6006ZM18.0752 19.9971L18.9931 20.394L18.9968 20.3851L18.0752 19.9971ZM18.0752 22.0156L17.1535 22.4037L17.1573 22.4125L18.0752 22.0156ZM19.459 23.3994L19.0621 24.3173L19.0709 24.321L19.459 23.3994ZM33.1064 24.0215L32.6992 24.9348L32.7066 24.9381L32.714 24.9413L33.1064 24.0215ZM34.7568 25.1387L34.0434 25.8394L34.0497 25.8458L34.0561 25.8521L34.7568 25.1387ZM35.874 26.7891L34.9542 27.1815L34.9562 27.186L35.874 26.7891ZM35.2803 28.7949C35.2803 29.3954 35.1693 29.9424 34.9542 30.4464L36.7938 31.2313C37.1204 30.4658 37.2803 29.6502 37.2803 28.7949H35.2803ZM34.9562 30.442C34.7345 30.9546 34.4329 31.399 34.0497 31.7822L35.4639 33.1964C36.0287 32.6316 36.4719 31.9757 36.7919 31.2358L34.9562 30.442ZM34.0497 31.7822C33.6789 32.153 33.237 32.4508 32.714 32.674L33.4989 34.5135C34.2454 34.195 34.9038 33.7565 35.4639 33.1964L34.0497 31.7822ZM32.7095 32.6759C32.2153 32.8896 31.6783 33 31.0879 33V35C31.9363 35 32.745 34.8395 33.5034 34.5116L32.7095 32.6759ZM31.0879 33H15.2695V35H31.0879V33ZM16.2695 34V31.3975H14.2695V34H16.2695ZM15.2695 32.3975H31.0879V30.3975H15.2695V32.3975ZM31.0879 32.3975C31.5791 32.3975 32.0538 32.3053 32.5004 32.1122L31.7066 30.2765C31.527 30.3542 31.3245 30.3975 31.0879 30.3975V32.3975ZM32.5004 32.1122C32.9305 31.9262 33.3122 31.6655 33.6359 31.3299L32.1962 29.9416C32.0628 30.0799 31.9029 30.1916 31.7066 30.2765L32.5004 32.1122ZM33.6231 31.3428C33.9509 31.0151 34.2079 30.6342 34.3925 30.2075L32.5568 29.4136C32.4705 29.6132 32.3551 29.7825 32.2089 29.9286L33.6231 31.3428ZM34.3962 30.1986C34.5844 29.7518 34.6777 29.2811 34.6777 28.7949H32.6777C32.6777 29.0197 32.6357 29.226 32.553 29.4225L34.3962 30.1986ZM34.6777 28.7949C34.6777 28.3088 34.5843 27.8388 34.3925 27.3951L32.5568 28.1889C32.6357 28.3715 32.6777 28.5701 32.6777 28.7949H34.6777ZM34.3925 27.3951C34.2079 26.9683 33.9509 26.5875 33.6231 26.2597L32.2089 27.6739C32.3551 27.8201 32.4705 27.9894 32.5568 28.1889L34.3925 27.3951ZM33.6359 26.2727C33.3122 25.937 32.9305 25.6763 32.5004 25.4903L31.7066 27.3261C31.9029 27.4109 32.0628 27.5226 32.1962 27.6609L33.6359 26.2727ZM32.5004 25.4903C32.0538 25.2972 31.5791 25.2051 31.0879 25.2051V27.2051C31.3245 27.2051 31.527 27.2484 31.7066 27.3261L32.5004 25.4903ZM31.0879 25.2051H20.4746V27.2051H31.0879V25.2051ZM20.4746 25.2051C19.8944 25.2051 19.3554 25.0953 18.8485 24.879L18.0636 26.7186C18.8262 27.044 19.6329 27.2051 20.4746 27.2051V25.2051ZM18.8485 24.879C18.3239 24.6552 17.8752 24.3556 17.4937 23.9809L16.0923 25.4078C16.6587 25.9641 17.3187 26.4008 18.0636 26.7186L18.8485 24.879ZM17.5064 23.9936C17.1294 23.6097 16.8238 23.1575 16.5911 22.6285L14.7605 23.434C15.0863 24.1745 15.5256 24.831 16.0795 25.395L17.5064 23.9936ZM16.5956 22.6388C16.3799 22.1334 16.2695 21.5904 16.2695 21H14.2695C14.2695 21.8484 14.4299 22.6596 14.7559 23.4237L16.5956 22.6388ZM16.2695 21C16.2695 20.4198 16.3793 19.8808 16.5956 19.3739L14.756 18.589C14.4306 19.3516 14.2695 20.1583 14.2695 21H16.2695ZM16.5911 19.3842C16.8232 18.8568 17.1269 18.4114 17.5001 18.0382L16.0859 16.6239C15.5281 17.1817 15.0869 17.8366 14.7604 18.5787L16.5911 19.3842ZM17.5001 18.0382C17.881 17.6572 18.3277 17.356 18.8485 17.1337L18.0636 15.2941C17.3149 15.6135 16.6529 16.057 16.0859 16.6239L17.5001 18.0382ZM18.8588 17.1292C19.3634 16.9072 19.8988 16.7949 20.4746 16.7949V14.7949C19.6286 14.7949 18.8182 14.962 18.0533 15.2986L18.8588 17.1292ZM20.4746 16.7949H34.9854V14.7949H20.4746V16.7949ZM33.9854 15.7949V18.3975H35.9854V15.7949H33.9854ZM34.9854 17.3975H20.4746V19.3975H34.9854V17.3975ZM20.4746 17.3975C19.9884 17.3975 19.5177 17.4907 19.0709 17.6789L19.847 19.5222C20.0435 19.4395 20.2499 19.3975 20.4746 19.3975V17.3975ZM19.0621 17.6827C18.6353 17.8673 18.2545 18.1243 17.9267 18.4521L19.3409 19.8663C19.4871 19.7201 19.6564 19.6047 19.8559 19.5184L19.0621 17.6827ZM17.9267 18.4521C17.5945 18.7843 17.3371 19.1732 17.1536 19.609L18.9968 20.3851C19.0842 20.1777 19.1992 20.008 19.3409 19.8663L17.9267 18.4521ZM17.1573 19.6002C16.9655 20.0439 16.8721 20.5138 16.8721 21H18.8721C18.8721 20.7752 18.9141 20.5766 18.9931 20.394L17.1573 19.6002ZM16.8721 21C16.8721 21.4862 16.9653 21.9569 17.1535 22.4037L18.9968 21.6276C18.9141 21.4311 18.8721 21.2247 18.8721 21H16.8721ZM17.1573 22.4125C17.3419 22.8393 17.5989 23.2201 17.9267 23.5479L19.3409 22.1337C19.1947 21.9875 19.0793 21.8182 18.9931 21.6187L17.1573 22.4125ZM17.9267 23.5479C18.2545 23.8757 18.6353 24.1327 19.0621 24.3173L19.8559 22.4816C19.6564 22.3953 19.4871 22.2799 19.3409 22.1337L17.9267 23.5479ZM19.0709 24.321C19.5177 24.5092 19.9884 24.6025 20.4746 24.6025V22.6025C20.2499 22.6025 20.0435 22.5605 19.847 22.4778L19.0709 24.321ZM20.4746 24.6025H31.0879V22.6025H20.4746V24.6025ZM31.0879 24.6025C31.674 24.6025 32.2073 24.7154 32.6992 24.9348L33.5137 23.1082C32.753 22.7689 31.9406 22.6025 31.0879 22.6025V24.6025ZM32.714 24.9413C33.2332 25.1628 33.6731 25.4624 34.0434 25.8394L35.4703 24.438C34.9096 23.8671 34.2492 23.4218 33.4989 23.1017L32.714 24.9413ZM34.0561 25.8521C34.4331 26.2224 34.7327 26.6623 34.9542 27.1815L36.7938 26.3966C36.4737 25.6463 36.0284 24.9859 35.4575 24.4252L34.0561 25.8521ZM34.9562 27.186C35.1705 27.6817 35.2803 28.2147 35.2803 28.7949H37.2803C37.2803 27.9533 37.1192 27.149 36.7919 26.3922L34.9562 27.186Z" fill="#F8453B"/>
</g>
<path d="M12 38V3C12 1.89543 11.1046 1 10 1H3C1.89543 1 1 1.89543 1 3V47.5C1 48.6046 1.89543 49.5 3 49.5H37C38.1046 49.5 39 48.6046 39 47.5V42C39 40.8954 38.1046 40 37 40H14C12.8954 40 12 39.1046 12 38Z" fill="white" stroke="white"/>
<path d="M40.2646 12.7072V47.7072C40.2646 48.8118 41.1601 49.7072 42.2646 49.7072H49.2646C50.3692 49.7072 51.2646 48.8118 51.2646 47.7072V3.20721C51.2646 2.10265 50.3692 1.20721 49.2646 1.20721H15.2646C14.1601 1.20721 13.2646 2.10265 13.2646 3.20721V8.70721C13.2646 9.81178 14.1601 10.7072 15.2646 10.7072H38.2646C39.3692 10.7072 40.2646 11.6026 40.2646 12.7072Z" fill="white" stroke="white"/>
</svg>
